<?xml version="1.0" encoding="UTF-8" standalone="no"?>
<!DOCTYPE svg PUBLIC "-//W3C//DTD SVG 1.1//EN"
 "http://www.w3.org/Graphics/SVG/1.1/DTD/svg11.dtd">
<!-- Generated by graphviz version 2.26.3 (20100126.1600)
 -->
<!-- Title: controllers_diagram Pages: 1 -->
<svg width="582pt" height="264pt"
 viewBox="0.00 0.00 582.00 264.00" xmlns="http://www.w3.org/2000/svg" xmlns:xlink="http://www.w3.org/1999/xlink">
<g id="graph1" class="graph" transform="scale(1 1) rotate(0) translate(4 260)">
<title>controllers_diagram</title>
<polygon fill="white" stroke="white" points="-4,5 -4,-260 579,-260 579,5 -4,5"/>
<!-- _diagram_info -->
<g id="node1" class="node"><title>_diagram_info</title>
<text text-anchor="start" x="331" y="-239.3" font-family="Times Roman,serif" font-size="13.00">Controllers diagram</text>
<text text-anchor="start" x="331" y="-222.3" font-family="Times Roman,serif" font-size="13.00">Date: May 18 2013 &#45; 12:23</text>
<text text-anchor="start" x="331" y="-205.3" font-family="Times Roman,serif" font-size="13.00">Migration version: 20130518091814</text>
<text text-anchor="start" x="331" y="-188.3" font-family="Times Roman,serif" font-size="13.00">Generated by RailRoady 1.1.0</text>
<text text-anchor="start" x="331" y="-171.3" font-family="Times Roman,serif" font-size="13.00">http://railroady.prestonlee.com</text>
</g>
<!-- ApplicationController -->
<g id="node2" class="node"><title>ApplicationController</title>
<polyline fill="none" stroke="black" points="13,-10.5022 227,-10.5022 "/>
<path fill="none" stroke="black" d="M227,-10.5022C233,-10.5022 239,-16.5022 239,-22.5022"/>
<polyline fill="none" stroke="black" points="239,-22.5022 239,-100.502 "/>
<path fill="none" stroke="black" d="M239,-100.502C239,-106.502 233,-112.502 227,-112.502"/>
<polyline fill="none" stroke="black" points="227,-112.502 13,-112.502 "/>
<path fill="none" stroke="black" d="M13,-112.502C7,-112.502 1,-106.502 1,-100.502"/>
<polyline fill="none" stroke="black" points="1,-100.502 1,-22.5022 "/>
<path fill="none" stroke="black" d="M1,-22.5022C1,-16.5022 7,-10.5022 13,-10.5022"/>
<text text-anchor="middle" x="120" y="-95.9022" font-family="Times Roman,serif" font-size="14.00">ApplicationController</text>
<polyline fill="none" stroke="black" points="1,-86.5022 239,-86.5022 "/>
<text text-anchor="start" x="9" y="-69.9022" font-family="Times Roman,serif" font-size="14.00">_one_time_conditions_valid_12?</text>
<polyline fill="none" stroke="black" points="1,-60.5022 239,-60.5022 "/>
<polyline fill="none" stroke="black" points="1,-36.5022 239,-36.5022 "/>
<text text-anchor="start" x="9" y="-19.9022" font-family="Times Roman,serif" font-size="14.00">_layout</text>
</g>
<!-- CommentsController -->
<g id="node3" class="node"><title>CommentsController</title>
<polyline fill="none" stroke="black" points="275.724,-1.5 410.724,-1.5 "/>
<path fill="none" stroke="black" d="M410.724,-1.5C416.724,-1.5 422.724,-7.5 422.724,-13.5"/>
<polyline fill="none" stroke="black" points="422.724,-13.5 422.724,-109.5 "/>
<path fill="none" stroke="black" d="M422.724,-109.5C422.724,-115.5 416.724,-121.5 410.724,-121.5"/>
<polyline fill="none" stroke="black" points="410.724,-121.5 275.724,-121.5 "/>
<path fill="none" stroke="black" d="M275.724,-121.5C269.724,-121.5 263.724,-115.5 263.724,-109.5"/>
<polyline fill="none" stroke="black" points="263.724,-109.5 263.724,-13.5 "/>
<path fill="none" stroke="black" d="M263.724,-13.5C263.724,-7.5 269.724,-1.5 275.724,-1.5"/>
<text text-anchor="middle" x="343.224" y="-104.9" font-family="Times Roman,serif" font-size="14.00">CommentsController</text>
<polyline fill="none" stroke="black" points="263.724,-95.5 422.724,-95.5 "/>
<text text-anchor="start" x="271.724" y="-78.9" font-family="Times Roman,serif" font-size="14.00">create</text>
<text text-anchor="start" x="271.724" y="-60.9" font-family="Times Roman,serif" font-size="14.00">destroy</text>
<polyline fill="none" stroke="black" points="263.724,-51.5 422.724,-51.5 "/>
<polyline fill="none" stroke="black" points="263.724,-27.5 422.724,-27.5 "/>
<text text-anchor="start" x="271.724" y="-10.9" font-family="Times Roman,serif" font-size="14.00">_layout</text>
</g>
<!-- ApplicationController&#45;&gt;CommentsController -->
<g id="edge2" class="edge"><title>ApplicationController&#45;&gt;CommentsController</title>
<path fill="none" stroke="black" d="M239.128,-61.501C247.439,-61.501 255.694,-61.5009 263.709,-61.5008"/>
</g>
</g>
</svg>
