<?xml version="1.0" encoding="UTF-8" standalone="no"?>
<!DOCTYPE svg PUBLIC "-//W3C//DTD SVG 1.1//EN"
 "http://www.w3.org/Graphics/SVG/1.1/DTD/svg11.dtd">
<!-- Generated by graphviz version 2.26.3 (20100126.1600)
 -->
<!-- Title: models_diagram Pages: 1 -->
<svg width="440pt" height="152pt"
 viewBox="0.00 0.00 440.00 152.00" xmlns="http://www.w3.org/2000/svg" xmlns:xlink="http://www.w3.org/1999/xlink">
<g id="graph1" class="graph" transform="scale(1 1) rotate(0) translate(4 148)">
<title>models_diagram</title>
<polygon fill="white" stroke="white" points="-4,5 -4,-148 437,-148 437,5 -4,5"/>
<!-- _diagram_info -->
<g id="node1" class="node"><title>_diagram_info</title>
<text text-anchor="start" x="8" y="-102.8" font-family="Times Roman,serif" font-size="13.00">Models diagram</text>
<text text-anchor="start" x="8" y="-85.8" font-family="Times Roman,serif" font-size="13.00">Date: May 18 2013 &#45; 12:23</text>
<text text-anchor="start" x="8" y="-68.8" font-family="Times Roman,serif" font-size="13.00">Migration version: 20130518091814</text>
<text text-anchor="start" x="8" y="-51.8" font-family="Times Roman,serif" font-size="13.00">Generated by RailRoady 1.1.0</text>
<text text-anchor="start" x="8" y="-34.8" font-family="Times Roman,serif" font-size="13.00">http://railroady.prestonlee.com</text>
</g>
<!-- Comment -->
<g id="node2" class="node"><title>Comment</title>
<polyline fill="none" stroke="black" points="279.5,-1 420.5,-1 "/>
<path fill="none" stroke="black" d="M420.5,-1C426.5,-1 432.5,-7 432.5,-13"/>
<polyline fill="none" stroke="black" points="432.5,-13 432.5,-131 "/>
<path fill="none" stroke="black" d="M432.5,-131C432.5,-137 426.5,-143 420.5,-143"/>
<polyline fill="none" stroke="black" points="420.5,-143 279.5,-143 "/>
<path fill="none" stroke="black" d="M279.5,-143C273.5,-143 267.5,-137 267.5,-131"/>
<polyline fill="none" stroke="black" points="267.5,-131 267.5,-13 "/>
<path fill="none" stroke="black" d="M267.5,-13C267.5,-7 273.5,-1 279.5,-1"/>
<text text-anchor="middle" x="350" y="-126.4" font-family="Times Roman,serif" font-size="14.00">Comment</text>
<polyline fill="none" stroke="black" points="267.5,-117 432.5,-117 "/>
<text text-anchor="start" x="275.5" y="-100.4" font-family="Times Roman,serif" font-size="14.00">id :integer</text>
<text text-anchor="start" x="275.5" y="-82.4" font-family="Times Roman,serif" font-size="14.00">commenter :string</text>
<text text-anchor="start" x="275.5" y="-64.4" font-family="Times Roman,serif" font-size="14.00">body :text</text>
<text text-anchor="start" x="275.5" y="-46.4" font-family="Times Roman,serif" font-size="14.00">post_id :integer</text>
<text text-anchor="start" x="275.5" y="-28.4" font-family="Times Roman,serif" font-size="14.00">created_at :datetime</text>
<text text-anchor="start" x="275.5" y="-10.4" font-family="Times Roman,serif" font-size="14.00">updated_at :datetime</text>
</g>
</g>
</svg>
